Coordinates
version=1
nRows=60
nColumns=12
inDegrees=yes

Units are S.I. units (second, meters, Newtons, ...)
Angles are in degrees

endheader
time	SC_y	SC_z	SC_x	AC_y	AC_z	AC_x	GH_y	GH_z	GH_yy	EL_x	PS_y
       0.0              -31.27         -2.307           37.4          43.78          3.007          2.271          72.19          25.66          73.55          72.79          75.33
   0.04671              -31.27         -2.301           37.4          43.78          3.004          2.268          72.16          25.67          73.54          72.79          75.32
   0.09341              -31.27         -2.295           37.4          43.77          3.001          2.266          72.13          25.68          73.52          72.79          75.32
    0.1401              -31.27         -2.288           37.4          43.77          2.997          2.264          72.09          25.69          73.51          72.79          75.31
    0.1868              -31.27         -2.281          37.39          43.77          2.993          2.262          72.06           25.7          73.49          72.79           75.3
    0.2335              -31.27         -2.273          37.39          43.77          2.989          2.259          72.02          25.71          73.47           72.8          75.29
    0.2802              -31.27         -2.265          37.38          43.77          2.984          2.256          71.98          25.72          73.45           72.8          75.29
    0.3269              -31.27         -2.256          37.38          43.76           2.98          2.253          71.93          25.74          73.43           72.8          75.28
    0.3736              -31.27         -2.247          37.38          43.76          2.974           2.25          71.88          25.75          73.41           72.8          75.27
    0.4204              -31.27         -2.237          37.37          43.76          2.969          2.246          71.83          25.77          73.38          72.81          75.26
    0.4671              -31.27         -2.226          37.37          43.75          2.963          2.243          71.78          25.78          73.35          72.81          75.24
    0.5138              -31.27         -2.214          37.36          43.75          2.957          2.239          71.72           25.8          73.33          72.81          75.23
    0.5605              -31.27         -2.202          37.36          43.74           2.95          2.234          71.65          25.82           73.3          72.82          75.22
    0.6072              -31.27         -2.188          37.35          43.74          2.942           2.23          71.58          25.84          73.26          72.82           75.2
    0.6539              -31.27         -2.174          37.34          43.74          2.934          2.225          71.51          25.87          73.23          72.82          75.19
    0.7006              -31.27         -2.158          37.33          43.73          2.925          2.219          71.42          25.89          73.19          72.83          75.17
    0.7473              -31.26         -2.141          37.33          43.72          2.916          2.213          71.34          25.92          73.15          72.83          75.15
     0.794              -31.26         -2.122          37.32          43.72          2.906          2.207          71.24          25.95           73.1          72.84          75.13
    0.8407              -31.26         -2.102          37.31          43.71          2.894            2.2          71.13          25.98          73.05          72.85          75.11
    0.8874              -31.26         -2.079           37.3           43.7          2.882          2.192          71.02          26.01          72.99          72.85          75.09
    0.9341              -31.26         -2.055          37.29           43.7          2.868          2.183          70.89          26.05          72.93          72.86          75.06
    0.9808              -31.26         -2.027          37.27          43.69          2.853          2.174          70.75           26.1          72.87          72.87          75.03
     1.028              -31.26         -1.997          37.26          43.68          2.837          2.164           70.6          26.14          72.79          72.88           75.0
     1.074              -31.26         -1.964          37.24          43.67          2.819          2.152          70.43          26.19          72.71          72.89          74.97
     1.121              -31.26         -1.927          37.23          43.66          2.798          2.139          70.24          26.25          72.62           72.9          74.93
     1.168              -31.26         -1.886          37.21          43.64          2.776          2.125          70.02          26.32          72.52          72.91          74.88
     1.214              -31.26          -1.84          37.18          43.63           2.75          2.109          69.79          26.39          72.41          72.92          74.83
     1.261              -31.26         -1.788          37.16          43.61          2.722          2.091          69.52          26.47          72.28          72.94          74.78
     1.308              -31.25          -1.73          37.13          43.59          2.689          2.071          69.22          26.56          72.14          72.95          74.72
     1.354              -31.25         -1.663           37.1          43.57          2.653          2.048          68.87          26.66          71.98          72.97          74.65
     1.401              -31.25         -1.587          37.07          43.55          2.611          2.022          68.48          26.78          71.79          72.99          74.57
     1.448              -31.25           -1.5          37.02          43.52          2.563          1.992          68.03          26.92          71.58          73.02          74.47
     1.495              -31.25           -1.4          36.98          43.48          2.508          1.957          67.52          27.08          71.33          73.05          74.37
     1.541              -31.24         -1.283          36.92          43.45          2.443          1.917          66.91          27.26          71.05          73.08          74.24
     1.588              -31.24         -1.146          36.86           43.4          2.368           1.87          66.21          27.47          70.71          73.12           74.1
     1.635              -31.24        -0.9847          36.78          43.35          2.279          1.814          65.38          27.72          70.32          73.17          73.93
     1.681              -31.23        -0.7931          36.69          43.29          2.173          1.748          64.39          28.02          69.85          73.23          73.72
     1.728              -31.22        -0.5635          36.58          43.21          2.047          1.668          63.21          28.38          69.29          73.29          73.48
     1.775              -31.22        -0.2857          36.45          43.12          1.894          1.573          61.77          28.82          68.61          73.37          73.18
     1.822              -31.21        0.05376          36.29          43.01          1.707          1.455          60.02          29.35          67.78          73.47          72.82
     1.868               -31.2         0.4727           36.1          42.88          1.476          1.311          57.87           30.0          66.75          73.59          72.38
     1.915              -31.19          0.995          35.85          42.71          1.188           1.13          55.17          30.82          65.47          73.74          71.83
     1.962              -31.17          1.653          35.54          42.49         0.8256          0.903          51.78          31.85          63.86          73.94          71.13
     2.008              -31.15           2.49          35.15          42.22         0.3647         0.6141          47.47          33.15          61.81          74.18          70.24
     2.055              -31.12           3.56          34.64          41.87        -0.2253         0.2444          41.95          34.83          59.19          74.49           69.1
     2.102              -31.09          4.934           34.0          41.43        -0.9823        -0.2301          34.87          36.97          55.83          74.89          67.64
     2.148              -31.04          6.689          33.17          40.86         -1.949        -0.8362          25.82          39.71          51.54           75.4          65.78
     2.195              -30.99          8.896          32.13          40.14         -3.165         -1.598          14.45          43.16          46.14          76.04          63.44
     2.242              -30.92          11.59          30.87          39.27         -4.647         -2.527         0.5856          47.36          39.56          76.82          60.58
     2.289              -30.84           14.7           29.4          38.25         -6.365         -3.604         -15.48          52.23          31.93          77.72          57.28
     2.335              -30.75          18.08          27.81          37.16         -8.224         -4.769         -32.88          57.51          23.67           78.7          53.69
     2.382              -30.67          21.45          26.23          36.06         -10.08         -5.935         -50.28          62.78          15.41          79.68          50.11
     2.429              -30.59          24.57          24.76          35.05          -11.8         -7.011         -66.34          67.65          7.779          80.59           46.8
     2.475              -30.52          27.26           23.5          34.18         -13.28          -7.94         -80.21          71.85          1.198          81.37          43.95
     2.522              -30.46          29.47          22.46          33.46          -14.5         -8.702         -91.58           75.3         -4.202          82.01          41.61
     2.569              -30.42          31.22          21.63          32.89         -15.47         -9.308         -100.6          78.04         -8.497          82.52          39.74
     2.616              -30.39           32.6          20.99          32.44         -16.22         -9.783         -107.7          80.19         -11.86          82.92          38.28
     2.662              -30.36          33.67          20.48           32.1         -16.81         -10.15         -113.2          81.86         -14.48          83.23          37.15
     2.709              -30.34           34.5          20.09          31.82         -17.27         -10.44         -117.5          83.17         -16.53          83.47          36.26
     2.756              -30.32          35.16          19.78          31.61         -17.64         -10.67         -120.9           84.2         -18.14          83.66          35.56
